<mxfile host="app.diagrams.net" modified="2024-06-30T09:37:25.592Z" agent="Mozilla/5.0 (Windows NT 10.0; Win64; x64) AppleWebKit/537.36 (KHTML, like Gecko) Chrome/126.0.0.0 Safari/537.36" version="24.6.4" etag="gu7w8uoE6aEYOXLpLndG" type="github">
  <diagram name="Page-1" id="QGeT__HTCCtyGPS0ragg">
    <mxGraphModel>
      <root>
        <mxCell id="0" />
        <mxCell id="1" parent="0" />
      </root>
    </mxGraphModel>
  </diagram>
</mxfile>
